<?xml version="1.0" encoding="utf-8"?>
<!-- Generator: Adobe Illustrator 16.0.0, SVG Export Plug-In . SVG Version: 6.00 Build 0)  -->
<!DOCTYPE svg PUBLIC "-//W3C//DTD SVG 1.1//EN" "http://www.w3.org/Graphics/SVG/1.1/DTD/svg11.dtd">
<svg version="1.1" id="Layer_1" xmlns="http://www.w3.org/2000/svg" xmlns:xlink="http://www.w3.org/1999/xlink" x="0px" y="0px"
	 width="530.334px" height="209.333px" viewBox="-80.667 -31.667 530.334 209.333"
	 enable-background="new -80.667 -31.667 530.334 209.333" xml:space="preserve">
<polygon fill="#94A2AA" points="0.4,31.455 -62.238,31.455 0.4,-31.186 "/>
<rect x="9.519" y="-31.186" fill="#0071BB" width="62.641" height="62.641"/>
<polygon fill="#94A2AA" points="143.911,31.455 81.268,31.455 81.268,-31.186 "/>
<rect x="-62.238" y="40.564" fill="#0071BB" width="62.639" height="62.646"/>
<polygon fill="#94A2AA" points="0.4,174.97 -62.238,112.322 0.4,112.322 "/>
<rect x="9.519" y="112.322" fill="#0071BB" width="62.641" height="62.647"/>
<polygon fill="#94A2AA" points="81.268,174.97 81.268,112.322 143.917,112.322 "/>
<path fill="#FFFFFF" d="M57.49,40.957H23.278c-10.769,0-14.217,3.034-14.217,14.824l0.005,33.051
	c0,11.783,3.443,14.825,14.212,14.825H57.49c10.792,0,14.225-3.042,14.225-14.825v-7.416l-13.334-3.043v13.498H22.39V52.14h35.991
	v11.901l13.334-2.304v-5.956C71.715,43.991,68.282,40.957,57.49,40.957z M147.047,40.957l-26.345,50.914H95.244V40.957H81.912v62.7
	h46.033l6.664-13.736h36.323l6.887,13.736h15.005l-32.888-62.7H147.047z M140.276,78.623l12.77-25.521l12.331,25.521H140.276z
	 M245.501,65.382h-35.765V51.89h37.544v7.165l11.783-3.026V54.69c0-10.819-4.003-13.733-14.229-13.733h-32.547
	c-10.764,0-14.219,3.034-14.219,14.824v6.924c0,11.784,3.455,14.832,14.219,14.832h35.777v14.333h-40.551V84.46l-11.781,2.675v1.697
	c0,11.783,3.559,14.825,14.332,14.825h35.435c10.774,0,14.333-3.042,14.333-14.825v-8.636
	C259.834,68.413,256.276,65.382,245.501,65.382z M318.859,65.382h-35.771V51.89h37.548v7.165l11.77-3.026V54.69
	c0-10.819-3.989-13.733-14.223-13.733h-32.546c-10.779,0-14.224,3.034-14.224,14.824v6.924c0,11.784,3.444,14.832,14.224,14.832
	h35.779v14.333h-40.555V84.46l-11.782,2.675v1.697c0,11.783,3.558,14.825,14.338,14.825h35.442c10.773,0,14.32-3.042,14.32-14.825
	v-8.636C333.179,68.413,329.632,65.382,318.859,65.382z M343.487,103.657h13.335v-62.7h-13.335V103.657z M430.222,61.737v-5.956
	c0-11.79-3.443-14.829-14.222-14.829h-34.213c-10.776,0.005-14.226,3.039-14.226,14.829v33.051c0,11.783,3.449,14.825,14.226,14.825
	H416c10.778,0,14.222-3.042,14.222-14.825v-7.416l-13.338-3.043v13.498h-35.992V52.14h35.992v11.901L430.222,61.737z"/>
<g>
	<g>
		<path fill="#94A2AA" d="M150.49,113.084h6.37l1.262,10.346l1.263-10.346h6.476v21.648h-4.124V122.47l-1.997,12.263h-3.12
			l-2.026-12.263v12.263h-4.105V113.084z"/>
		<path fill="#94A2AA" d="M168.3,113.084h7.502v2.954h-2.92v5.447h2.92v2.888h-2.92v7.46h2.92v2.899H168.3V113.084z"/>
		<path fill="#94A2AA" d="M179.167,116.074h-2.556v-2.99h9.65v2.99h-2.503v18.658h-4.591V116.074z"/>
		<path fill="#94A2AA" d="M188.624,113.084h6.242l2.958,21.648h-4.583l-0.371-4.515h-2.062l-0.368,4.515h-4.054L188.624,113.084z
			 M192.628,127.329l-0.963-10.122l-0.651,10.122H192.628z"/>
		<path fill="#94A2AA" d="M206.465,134.732h-7.427v-21.648h4.538v18.723h2.89V134.732z"/>
		<path fill="#94A2AA" d="M215.22,134.732h-7.421v-21.648h4.54v18.723h2.882V134.732z"/>
		<path fill="#94A2AA" d="M216.479,113.084h4.62v21.648h-4.62V113.084z"/>
		<path fill="#94A2AA" d="M234.078,131.509c0,2.507-1.262,3.282-5.316,3.282c-2.562,0-3.646-0.195-4.5-0.809
			c-0.808-0.614-1.014-1.209-1.014-3.114v-13.887c0-1.887,0.292-2.628,1.214-3.287c0.782-0.553,1.588-0.672,4.178-0.672
			c2.802,0,3.656,0.162,4.43,0.809c0.764,0.622,1.01,1.303,1.01,2.695v4.087h-4.585v-3.566c0-0.846-0.194-1.139-0.766-1.139
			c-0.651,0-0.854,0.293-0.854,1.115v13.743c0,0.778,0.202,1.066,0.765,1.066c0.607,0,0.854-0.324,0.854-1.04v-5.089h4.585V131.509z
			"/>
	</g>
	<g>
		<path fill="#94A2AA" d="M245.995,125.897v4.836c0,0.775,0.246,1.1,0.775,1.1c0.601,0,0.808-0.288,0.808-1.066v-4.083
			c0-1.241,0-1.241-0.935-1.692l-2.883-1.367c-1.903-0.901-2.34-1.519-2.34-3.269v-3.673c0-1.979,0.229-2.555,1.41-3.168
			c0.776-0.389,1.414-0.492,3.725-0.492c3.054,0,3.94,0.189,4.829,1.04c0.571,0.576,0.779,1.197,0.779,2.488v4.097h-4.586v-3.575
			c0-0.811-0.247-1.133-0.808-1.133c-0.529,0-0.775,0.322-0.775,1.084v3.136c0,0.685,0.074,0.847,0.648,1.136l3.769,1.876
			c1.346,0.693,1.752,1.262,1.752,2.727v5.72c0,1.097-0.369,1.877-1.1,2.45c-0.812,0.629-1.455,0.724-4.252,0.724
			c-2.97,0-3.575-0.136-4.478-0.876c-0.724-0.617-0.914-1.142-0.914-2.344v-5.674H245.995z"/>
		<path fill="#94A2AA" d="M300.976,125.897v4.836c0,0.775,0.242,1.1,0.773,1.1c0.602,0,0.811-0.288,0.811-1.066v-4.083
			c0-1.241,0-1.241-0.939-1.692l-2.88-1.367c-1.903-0.901-2.341-1.519-2.341-3.269v-3.673c0-1.979,0.23-2.555,1.409-3.168
			c0.778-0.389,1.417-0.492,3.728-0.492c3.053,0,3.937,0.189,4.827,1.04c0.569,0.576,0.778,1.197,0.778,2.488v4.097h-4.582v-3.575
			c0-0.811-0.25-1.133-0.811-1.133c-0.531,0-0.773,0.322-0.773,1.084v3.136c0,0.685,0.073,0.847,0.645,1.136l3.771,1.876
			c1.342,0.693,1.75,1.262,1.75,2.727v5.72c0,1.097-0.369,1.877-1.1,2.45c-0.811,0.629-1.453,0.724-4.251,0.724
			c-2.97,0-3.576-0.136-4.476-0.876c-0.728-0.617-0.916-1.142-0.916-2.344v-5.674H300.976z"/>
		<path fill="#94A2AA" d="M254.195,113.084h4.574v8.34h1.58v-8.34h4.586v21.648h-4.586v-10.39h-1.58v10.39h-4.574V113.084z"/>
		<path fill="#94A2AA" d="M267.366,113.084h7.502v2.954h-2.916v5.447h2.916v2.888h-2.916v7.46h2.916v2.899h-7.502V113.084z"/>
		<path fill="#94A2AA" d="M276.774,113.084h7.504v2.954h-2.922v5.447h2.922v2.888h-2.922v7.46h2.922v2.899h-7.504V113.084z"/>
		<path fill="#94A2AA" d="M287.637,116.074h-2.55v-2.99h9.647v2.99h-2.509v18.658h-4.589V116.074z"/>
	</g>
	<g>
		<path fill="#94A2AA" d="M314.49,113.084h7.416v2.954h-2.831v5.447h2.831v2.888h-2.831v10.359h-4.585V113.084z"/>
		<path fill="#94A2AA" d="M324.785,113.084h6.253l2.961,21.648h-4.588l-0.363-4.515h-2.065l-0.361,4.515h-4.053L324.785,113.084z
			 M328.808,127.329l-0.972-10.122l-0.655,10.122H328.808z"/>
		<path fill="#94A2AA" d="M346.128,131.509c0,2.507-1.257,3.282-5.317,3.282c-2.549,0-3.65-0.195-4.504-0.809
			c-0.814-0.614-1.007-1.209-1.007-3.114v-13.887c0-1.887,0.284-2.628,1.221-3.287c0.762-0.553,1.571-0.672,4.176-0.672
			c2.794,0,3.645,0.162,4.415,0.809c0.775,0.622,1.017,1.303,1.017,2.695v4.087h-4.586v-3.566c0-0.846-0.206-1.139-0.776-1.139
			c-0.642,0-0.844,0.293-0.844,1.115v13.743c0,0.778,0.202,1.066,0.774,1.066c0.603,0,0.846-0.324,0.846-1.04v-5.089h4.586V131.509z
			"/>
		<path fill="#94A2AA" d="M349.656,116.074h-2.56v-2.99h9.648v2.99h-2.504v18.658h-4.585V116.074z"/>
		<path fill="#94A2AA" d="M358.292,116.826c0-1.821,0.281-2.532,1.259-3.157c0.889-0.527,1.709-0.646,4.495-0.646
			c2.482,0,3.362,0.189,4.143,0.913c0.688,0.576,0.895,1.198,0.895,2.615v14.216c0,1.983-0.207,2.628-1.062,3.249
			c-0.806,0.616-1.662,0.775-3.932,0.775c-2.96,0-3.808-0.136-4.579-0.649c-0.975-0.647-1.219-1.368-1.219-3.375V116.826z
			 M364.534,117.104c0-0.843-0.241-1.196-0.848-1.196c-0.528,0-0.764,0.354-0.764,1.139v13.72c0,0.742,0.235,1.04,0.808,1.04
			c0.524,0,0.804-0.353,0.804-1.04V117.104z"/>
		<path fill="#94A2AA" d="M371.271,113.084h6.157c1.991,0,2.761,0.173,3.532,0.687c0.888,0.646,1.135,1.363,1.135,3.526v3.872
			c0,1.743-0.327,2.239-1.985,2.925c1.409,0.381,1.985,1.12,1.985,2.65v7.988h-4.667v-8.085c0-0.881-0.238-1.104-1.129-1.104h-0.413
			v9.189h-4.615V113.084z M375.886,122.557c0.17,0.043,0.331,0.043,0.369,0.043c1.012,0,1.173-0.198,1.173-1.431v-3.896
			c0-1.011-0.196-1.263-0.968-1.263h-0.574V122.557z"/>
		<path fill="#94A2AA" d="M386.603,126.024l-3.495-12.94h4.498l1.267,8.401l1.299-8.401h4.012l-2.917,12.94v8.708h-4.663V126.024z"
			/>
	</g>
	<g>
		<path fill="#94A2AA" d="M408.183,134.732h-7.693v-21.648h4.711v18.723h2.982V134.732z"/>
		<path fill="#94A2AA" d="M417.265,134.732h-7.691v-21.648h4.701v18.723h2.99V134.732z"/>
		<path fill="#94A2AA" d="M430.072,131.509c0,2.507-1.292,3.282-5.492,3.282c-2.657,0-3.794-0.195-4.667-0.809
			c-0.842-0.614-1.058-1.209-1.058-3.114v-13.887c0-1.887,0.301-2.628,1.26-3.287c0.801-0.553,1.643-0.672,4.326-0.672
			c2.901,0,3.79,0.162,4.578,0.809c0.803,0.622,1.053,1.303,1.053,2.695v4.087h-4.739v-3.566c0-0.846-0.218-1.139-0.812-1.139
			c-0.666,0-0.867,0.293-0.867,1.115v13.743c0,0.778,0.201,1.066,0.787,1.066c0.63,0,0.892-0.324,0.892-1.04v-5.089h4.739V131.509z"
			/>
	</g>
</g>
</svg>
